<?xml version="1.0" standalone="no"?>
<!DOCTYPE svg PUBLIC "-//W3C//DTD SVG 20010904//EN"
 "http://www.w3.org/TR/2001/REC-SVG-20010904/DTD/svg10.dtd">
<svg version="1.0" xmlns="http://www.w3.org/2000/svg"
 width="800.000000pt" height="800.000000pt" viewBox="0 0 800.000000 800.000000"
 preserveAspectRatio="xMidYMid meet">
<metadata>
Created by potrace 1.14, written by Peter Selinger 2001-2017
</metadata>
<g transform="translate(0.000000,800.000000) scale(0.100000,-0.100000)"
fill="#000000" stroke="none">
<path d="M0 4000 l0 -4000 4000 0 4000 0 0 4000 0 4000 -4000 0 -4000 0 0
-4000z m2069 1106 c177 -411 321 -752 321 -757 0 -5 -39 -9 -87 -9 l-88 0 -84
205 -85 205 -307 0 -307 0 -87 -205 -88 -205 -88 0 -89 0 13 33 c8 17 145 329
304 692 159 363 302 690 318 727 16 37 30 66 31 65 2 -1 147 -339 323 -751z
m1594 670 c88 -43 207 -172 180 -196 -4 -4 -32 -23 -62 -43 l-54 -36 -32 45
c-42 59 -86 90 -147 104 -146 35 -282 -38 -308 -166 -26 -125 29 -186 262
-289 84 -37 178 -83 209 -101 109 -66 181 -171 195 -285 12 -107 -28 -253 -91
-327 -28 -33 -28 -34 -12 -68 21 -43 22 -116 2 -154 -21 -41 -78 -81 -124 -87
-63 -9 -105 4 -145 44 -37 38 -44 61 -24 81 9 9 1 12 -38 12 -71 0 -150 15
-219 41 -107 40 -224 183 -250 306 -6 32 -6 32 47 47 110 31 101 34 120 -32
22 -74 83 -146 153 -178 67 -31 173 -33 228 -4 20 11 44 20 54 20 27 0 90 75
112 135 41 110 15 229 -65 290 -19 15 -122 69 -230 120 -291 141 -349 206
-349 390 0 75 5 99 26 145 32 68 68 111 127 152 76 52 141 68 267 65 98 -2
116 -5 168 -31z m1657 -61 l0 -75 -175 0 -175 0 0 -650 0 -650 -85 0 -85 0 0
650 0 650 -175 0 -175 0 0 75 0 75 435 0 435 0 0 -75z m1108 65 c111 -18 171
-47 238 -114 69 -69 101 -140 111 -240 19 -210 -122 -403 -314 -432 -24 -3
-43 -8 -43 -10 0 -3 98 -143 218 -312 120 -169 222 -313 226 -319 6 -10 -15
-13 -91 -13 l-98 0 -218 315 c-159 229 -224 315 -238 315 -18 0 -19 -10 -19
-315 l0 -315 -85 0 -85 0 0 725 0 725 168 0 c92 0 195 -5 230 -10z m-344
-2837 c176 -412 321 -752 324 -756 2 -4 -38 -6 -88 -5 l-91 3 -84 200 -83 200
-308 0 -309 0 -86 -200 -86 -200 -91 -3 -91 -3 63 143 c34 79 183 419 331 756
148 336 272 612 275 612 3 0 149 -336 324 -747z m-3458 687 c217 -55 395 -198
489 -395 55 -113 69 -182 69 -330 0 -150 -14 -215 -74 -340 -92 -191 -264
-330 -479 -387 -107 -28 -287 -28 -392 0 -261 70 -457 262 -531 517 -19 66
-22 104 -22 215 0 126 2 141 34 234 83 245 270 420 520 485 105 28 279 28 386
1z m1524 -650 l0 -650 200 0 200 0 0 -75 0 -75 -285 0 -285 0 0 725 0 725 85
0 85 0 0 -650z"/>
<path d="M1736 5462 c-10 -17 -236 -546 -236 -554 0 -5 108 -8 240 -8 132 0
240 2 240 5 0 6 -231 559 -235 563 -2 2 -6 -1 -9 -6z"/>
<path d="M3538 4313 c7 -3 16 -2 19 1 4 3 -2 6 -13 5 -11 0 -14 -3 -6 -6z"/>
<path d="M6200 5380 l0 -260 78 0 c148 0 245 40 299 122 24 36 28 54 31 128 4
97 -11 142 -65 191 -57 54 -147 79 -280 79 l-63 0 0 -260z"/>
<path d="M5744 3294 c-4 -10 -58 -138 -121 -283 -62 -146 -111 -266 -109 -268
2 -2 111 -2 243 -1 l239 3 -117 278 c-64 153 -119 280 -122 284 -4 3 -10 -3
-13 -13z"/>
<path d="M2298 3484 c-204 -49 -384 -231 -433 -435 -19 -82 -19 -206 0 -288
27 -111 71 -188 160 -276 122 -122 246 -175 410 -175 165 0 290 53 410 174
123 124 175 249 175 416 0 171 -56 306 -175 426 -144 146 -352 206 -547 158z"/>
</g>
</svg>
