<?xml version="1.0" standalone="no"?>
<!DOCTYPE svg PUBLIC "-//W3C//DTD SVG 20010904//EN"
 "http://www.w3.org/TR/2001/REC-SVG-20010904/DTD/svg10.dtd">
<svg version="1.0" xmlns="http://www.w3.org/2000/svg"
 width="800.000000pt" height="800.000000pt" viewBox="0 0 800.000000 800.000000"
 preserveAspectRatio="xMidYMid meet">
<metadata>
Created by potrace 1.14, written by Peter Selinger 2001-2017
</metadata>
<g transform="translate(0.000000,800.000000) scale(0.100000,-0.100000)"
fill="#000000" stroke="none">
<path d="M0 4000 l0 -4000 4000 0 4000 0 0 4000 0 4000 -4000 0 -4000 0 0
-4000z m3303 1835 c214 -45 335 -171 373 -387 l6 -38 -111 0 c-101 0 -111 2
-111 18 0 48 -34 113 -80 155 -60 54 -118 72 -225 72 -144 -1 -242 -52 -290
-150 -52 -105 -21 -228 74 -290 26 -18 106 -43 255 -80 119 -29 245 -67 280
-83 87 -41 149 -100 188 -180 29 -58 33 -77 36 -166 3 -84 0 -112 -18 -165
-68 -204 -256 -314 -530 -314 -128 0 -207 16 -306 64 -118 56 -213 182 -232
312 l-9 57 108 0 107 0 7 -32 c18 -82 68 -142 150 -180 44 -20 65 -23 180 -23
115 0 136 3 180 23 100 46 155 124 155 222 0 96 -49 169 -140 209 -25 11 -115
36 -200 55 -205 47 -225 53 -294 88 -83 42 -150 109 -189 187 -31 63 -32 70
-32 186 0 117 1 122 34 190 20 40 55 90 83 117 123 120 353 175 551 133z
m-1604 -738 c146 -397 275 -750 288 -784 l23 -63 -113 0 -112 0 -70 195 -70
195 -331 0 -331 0 -69 -195 -68 -195 -108 0 c-59 0 -108 3 -108 8 0 4 127 357
282 784 l283 778 120 0 120 0 264 -723z m3759 626 l-3 -98 -232 -3 -233 -2 0
-183 c0 -100 -1 -408 -1 -684 l0 -503 -109 0 -110 0 0 685 0 685 -235 0 -235
0 0 100 0 100 580 0 581 0 -3 -97z m1466 82 c238 -50 376 -219 376 -458 0 -74
-22 -172 -50 -228 -40 -78 -129 -157 -210 -189 -19 -7 -37 -15 -39 -16 -2 -2
67 -149 153 -327 86 -178 156 -327 156 -331 0 -4 -53 -5 -117 -4 l-118 3 -145
307 -145 308 -202 0 -203 0 0 -310 0 -310 -105 0 -105 0 0 785 0 785 343 0
c262 0 358 -4 411 -15z m-4529 -2150 c33 -9 98 -35 145 -58 69 -33 102 -58
176 -132 76 -76 97 -105 137 -185 79 -163 108 -330 88 -514 -47 -434 -339
-710 -751 -709 -139 0 -224 19 -337 73 -187 91 -311 243 -380 467 -25 81 -27
102 -27 263 -1 186 7 235 58 362 95 234 284 390 536 444 81 17 271 11 355 -11z
m1535 -690 l0 -685 345 0 345 0 0 -100 0 -100 -450 0 -450 0 0 785 0 785 105
0 105 0 0 -685z m2402 -80 c153 -418 281 -770 284 -782 6 -23 5 -23 -104 -23
l-110 0 -43 118 c-23 64 -54 151 -69 192 l-28 75 -332 0 -332 0 -67 -190 -68
-190 -111 -3 -112 -3 36 98 c19 54 148 408 286 786 l251 688 120 -3 120 -3
279 -760z"/>
<path d="M1301 5525 c-6 -22 -64 -186 -130 -365 l-118 -325 134 -3 c74 -1 192
-1 262 0 l129 3 -70 190 c-39 105 -99 269 -133 365 l-63 174 -11 -39z"/>
<path d="M6380 5345 l0 -287 243 4 c230 3 245 4 295 27 66 30 125 95 143 158
17 63 15 170 -6 219 -22 54 -78 108 -139 136 -48 21 -66 23 -293 26 l-243 4 0
-287z"/>
<path d="M2053 3455 c-181 -49 -302 -174 -364 -375 -31 -98 -33 -308 -6 -410
70 -258 258 -410 507 -410 205 0 371 102 460 284 56 114 73 202 67 356 -7 195
-56 322 -168 432 -63 62 -152 109 -237 127 -72 15 -195 13 -259 -4z"/>
<path d="M5920 3367 c0 -7 -56 -167 -125 -356 -69 -189 -125 -345 -125 -347 0
-2 117 -4 260 -4 143 0 260 4 260 8 0 5 -51 148 -114 318 -63 170 -119 328
-126 352 -12 40 -30 57 -30 29z"/>
</g>
</svg>
